<?xml version="1.0" standalone="no"?>
<!DOCTYPE svg PUBLIC "-//W3C//DTD SVG 20010904//EN"
 "http://www.w3.org/TR/2001/REC-SVG-20010904/DTD/svg10.dtd">
<svg version="1.0" xmlns="http://www.w3.org/2000/svg"
 width="16.000000pt" height="16.000000pt" viewBox="0 0 16.000000 16.000000"
 preserveAspectRatio="xMidYMid meet">

<g transform="translate(0.000000,16.000000) scale(0.100000,-0.100000)"
fill="#000000" stroke="none">
<path d="M110 147 c0 -15 -36 -29 -80 -31 -20 -1 -25 -6 -25 -26 0 -35 41 -41
54 -8 10 23 10 23 10 1 1 -12 6 -25 12 -28 5 -4 14 -18 20 -32 14 -36 44 -27
45 15 1 22 -4 32 -14 32 -11 0 -12 3 -3 14 15 18 10 68 -6 74 -7 2 -13 -3 -13
-11z m0 -37 c0 -5 -4 -10 -10 -10 -5 0 -10 5 -10 10 0 6 5 10 10 10 6 0 10 -4
10 -10z m-77 -7 c-20 -8 -15 -26 5 -18 14 5 15 4 5 -6 -10 -10 -16 -10 -24 -2
-13 13 -4 33 14 32 9 0 9 -2 0 -6z m100 -84 c-8 -8 -13 -7 -18 2 -5 8 -4 10 3
5 7 -4 12 -2 12 5 0 7 3 9 7 6 4 -4 2 -12 -4 -18z"/>
<path d="M25 41 c-3 -6 0 -9 8 -5 8 3 14 -2 14 -11 0 -10 -6 -14 -16 -10 -12
5 -13 3 -4 -6 14 -15 32 -4 29 18 -3 20 -22 28 -31 14z"/>
</g>
</svg>
